<svg width="120" height="26" viewBox="0 0 120 26" fill="none" xmlns="http://www.w3.org/2000/svg">
<path d="M30.9 18.8747H36.1104C39.9313 18.8747 42.1505 15.9593 42.1505 12.1182C42.1505 8.25734 39.9313 5.30261 36.1104 5.30261H30.9V18.8747ZM33.5824 16.4518V7.72549H36.1104C38.3296 7.72549 39.4681 9.79379 39.4681 12.1182C39.4681 14.4426 38.3296 16.4518 36.1104 16.4518H33.5824Z" fill="#fff"/>
<path d="M52.7638 14.1274C52.7638 11.3106 50.6604 9.45893 48.0938 9.45893C45.508 9.45893 43.308 11.3106 43.308 14.285C43.308 17.1215 45.3343 19.0519 48.0938 19.0519C49.6762 19.0519 51.2586 18.4216 52.1077 17.2594L50.6218 15.7426C50.0815 16.3927 49.1745 16.7669 48.2675 16.7669C47.0518 16.7669 46.2027 16.176 45.9325 15.1123H52.7252C52.7445 14.6986 52.7638 14.3835 52.7638 14.1274ZM45.9325 13.438C46.2027 12.197 47.1096 11.7045 48.1324 11.7045C49.271 11.7045 50.1587 12.3546 50.2359 13.438H45.9325Z" fill="#fff"/>
<path d="M57.5202 19.0519C59.3728 19.0519 61.3025 18.1064 61.3025 16.176C61.3025 15.4275 61.0324 14.0486 58.871 13.4577L57.3851 13.0637C56.8834 12.9258 56.4974 12.7091 56.4974 12.2758C56.4974 11.803 56.9606 11.5075 57.5395 11.5075C58.1377 11.5075 58.6395 11.8424 58.6395 12.453H61.0517C61.071 10.2862 59.1412 9.45893 57.5009 9.45893C55.4168 9.45893 53.9695 10.7787 53.9695 12.197C53.9695 13.1622 54.2782 14.482 56.5939 15.1123L57.7904 15.4078C58.4658 15.5851 58.7746 15.782 58.7746 16.176C58.7746 16.7079 58.2149 17.023 57.4816 17.023C56.5939 17.023 56.1501 16.4518 56.1501 15.9199H53.7765C53.7958 17.9488 55.6291 19.0519 57.5202 19.0519Z" fill="#fff"/>
<path d="M64.1748 8.06036C65.0625 8.06036 65.7765 7.37092 65.7765 6.5042C65.7765 5.63748 65.0625 4.96774 64.1748 4.96774C63.3065 4.96774 62.5732 5.63748 62.5732 6.5042C62.5732 7.37092 63.3065 8.06036 64.1748 8.06036ZM62.9205 18.8747H65.4485V9.6953H62.9205V18.8747Z" fill="#fff"/>
<path d="M74.3774 9.6953V10.7787C73.7212 9.89229 72.5055 9.47862 71.4827 9.47862C69.167 9.47862 67.0636 11.3106 67.0636 14.2653C67.0636 17.22 69.167 19.0519 71.4827 19.0519C72.4862 19.0519 73.7212 18.6383 74.3774 17.7519V17.8897C74.3774 20.2929 73.3546 21.199 71.7336 21.199C70.7687 21.199 69.8424 20.6081 69.4565 19.7808L67.3531 20.7066C68.125 22.4006 69.8038 23.5037 71.7336 23.5037C74.9177 23.5037 76.9053 21.6324 76.9053 17.614V9.6953H74.3774ZM71.9652 16.6488C70.6915 16.6488 69.6302 15.6048 69.6302 14.2653C69.6302 12.9061 70.6915 11.9015 71.9652 11.9015C73.1423 11.9015 74.3002 12.847 74.3002 14.2653C74.3002 15.6638 73.2002 16.6488 71.9652 16.6488Z" fill="#fff"/>
<path d="M84.3013 9.45893C83.4136 9.45893 81.9856 9.99078 81.5996 11.2318V9.6953H79.0716V18.8747H81.5996V14.1668C81.5996 12.4924 82.7189 12 83.6259 12C84.4942 12 85.3433 12.65 85.3433 14.1077V18.8747H87.8713V13.8319C87.8906 11.0742 86.6556 9.45893 84.3013 9.45893Z" fill="#fff"/>
<path d="M100.743 18.8747L94.5489 12.0591L99.5855 5.30261H96.247L92.9472 9.93168V5.30261H90.2648V18.8747H92.9472V14.1077L97.0961 18.8747H100.743Z" fill="#fff"/>
<path d="M102.564 8.06036C103.452 8.06036 104.166 7.37092 104.166 6.5042C104.166 5.63748 103.452 4.96774 102.564 4.96774C101.696 4.96774 100.962 5.63748 100.962 6.5042C100.962 7.37092 101.696 8.06036 102.564 8.06036ZM101.31 18.8747H103.838V9.6953H101.31V18.8747Z" fill="#fff"/>
<path d="M111.3 9.6953H109.39V6.32692H106.862V9.6953H105.221V11.6848H106.862V18.8747H109.39V11.6848H111.3V9.6953Z" fill="#fff"/>
<path fill-rule="evenodd" clip-rule="evenodd" d="M12.142 15.9446C12.142 15.7845 12.1591 15.6292 12.1913 15.4804C12.2474 15.2215 12.0929 14.9639 11.8464 14.9051C11.5998 14.8462 11.3544 15.0083 11.2984 15.2672C11.2511 15.4855 11.2263 15.7123 11.2263 15.9446V16.3566C11.2263 16.6221 11.4313 16.8373 11.6841 16.8373C11.937 16.8373 12.142 16.6221 12.142 16.3566V15.9446ZM11.6841 17.9361C11.4313 17.9361 11.2263 18.1513 11.2263 18.4168V18.8288C11.2263 19.0611 11.2511 19.2878 11.2984 19.5061C11.3544 19.765 11.5998 19.9271 11.8464 19.8683C12.0929 19.8094 12.2474 19.5519 12.1913 19.293C12.1591 19.1442 12.142 18.9889 12.142 18.8288V18.4168C12.142 18.1513 11.937 17.9361 11.6841 17.9361ZM13.136 13.5511C13.192 13.81 13.4373 13.9721 13.6839 13.9133C13.8257 13.8795 13.9736 13.8615 14.1261 13.8615H14.6493C14.9022 13.8615 15.1072 13.6463 15.1072 13.3808C15.1072 13.1153 14.9022 12.9001 14.6493 12.9001H14.1261C13.9048 12.9001 13.6888 12.9262 13.4809 12.9758C13.2343 13.0347 13.0799 13.2922 13.136 13.5511ZM13.136 21.2222C13.0799 21.4811 13.2343 21.7387 13.4809 21.7975C13.6888 21.8472 13.9048 21.8733 14.1261 21.8733H14.6493C14.9022 21.8733 15.1072 21.6581 15.1072 21.3926C15.1072 21.1271 14.9022 20.9119 14.6493 20.9119H14.1261C13.9736 20.9119 13.8257 20.8939 13.6839 20.8601C13.4373 20.8012 13.192 20.9634 13.136 21.2222ZM16.8078 13.3808C16.8078 13.6463 17.0128 13.8615 17.2657 13.8615H17.7889C17.9414 13.8615 18.0893 13.8795 18.2311 13.9133C18.4776 13.9721 18.723 13.81 18.779 13.5511C18.8351 13.2922 18.6807 13.0347 18.4341 12.9758C18.2262 12.9262 18.0102 12.9001 17.7889 12.9001H17.2657C17.0128 12.9001 16.8078 13.1153 16.8078 13.3808ZM16.8078 21.3926C16.8078 21.6581 17.0128 21.8733 17.2657 21.8733H17.7889C18.0102 21.8733 18.2262 21.8472 18.4341 21.7975C18.6807 21.7387 18.8351 21.4811 18.779 21.2222C18.723 20.9634 18.4776 20.8012 18.2311 20.8601C18.0893 20.8939 17.9414 20.9119 17.7889 20.9119H17.2657C17.0128 20.9119 16.8078 21.1271 16.8078 21.3926ZM20.0686 14.9051C19.8221 14.9639 19.6676 15.2215 19.7237 15.4804C19.7559 15.6292 19.773 15.7845 19.773 15.9446V16.3566C19.773 16.6221 19.978 16.8373 20.2309 16.8373C20.4837 16.8373 20.6887 16.6221 20.6887 16.3566V15.9446C20.6887 15.7123 20.6639 15.4855 20.6166 15.2672C20.5606 15.0083 20.3152 14.8462 20.0686 14.9051ZM20.0686 19.8683C20.3152 19.9271 20.5606 19.765 20.6166 19.5061C20.6639 19.2878 20.6887 19.0611 20.6887 18.8288V18.4168C20.6887 18.1513 20.4837 17.9361 20.2309 17.9361C19.978 17.9361 19.773 18.1513 19.773 18.4168V18.8288C19.773 18.9889 19.7559 19.1442 19.7237 19.293C19.6676 19.5519 19.8221 19.8094 20.0686 19.8683Z" fill="#fff"/>
<path fill-rule="evenodd" clip-rule="evenodd" d="M12.5998 8.89418V5.36899C12.5998 4.66103 13.1465 4.08711 13.8208 4.08711L18.0942 4.08711C18.7685 4.08711 19.3152 4.66103 19.3152 5.36899V8.89418C19.3152 9.60214 18.7685 10.1761 18.0942 10.1761H13.8208C13.1465 10.1761 12.5998 9.60214 12.5998 8.89418ZM11.3789 5.36899C11.3789 3.95306 12.4722 2.80522 13.8208 2.80522L18.0942 2.80522C19.4428 2.80522 20.5361 3.95306 20.5361 5.36899V8.89418C20.5361 10.3101 19.4428 11.4579 18.0942 11.4579H13.8208C12.4722 11.4579 11.3789 10.3101 11.3789 8.89418V5.36899Z" fill="#fff"/>
<path d="M15.9725 8.94897L17.3454 6.33652L19.3152 10.4912H17.7618L17.7643 10.4965H12.2946L15.0295 4.72805L16.3677 7.21288L15.9725 8.94897Z" fill="#fff"/>
<path fill-rule="evenodd" clip-rule="evenodd" d="M1.30593 19.4697L1.30593 15.9446C1.30593 15.2366 1.85257 14.6627 2.52689 14.6627H6.80027C7.47459 14.6627 8.02123 15.2366 8.02123 15.9446V19.4697C8.02123 20.1777 7.47459 20.7516 6.80027 20.7516H2.52689C1.85257 20.7516 1.30593 20.1777 1.30593 19.4697ZM0.0849611 15.9446C0.0849611 14.5286 1.17825 13.3808 2.52689 13.3808H6.80027C8.14891 13.3808 9.2422 14.5286 9.2422 15.9446V19.4697C9.2422 20.8857 8.14891 22.0335 6.80027 22.0335H2.52689C1.17825 22.0335 0.0849609 20.8857 0.0849609 19.4697L0.0849611 15.9446Z" fill="#fff"/>
<path fill-rule="evenodd" clip-rule="evenodd" d="M2.83213 16.5855C2.83213 16.2315 3.10545 15.9446 3.44261 15.9446H5.88454C6.2217 15.9446 6.49502 16.2315 6.49502 16.5855C6.49502 16.9395 6.2217 17.2264 5.88454 17.2264H3.44261C3.10545 17.2264 2.83213 16.9395 2.83213 16.5855Z" fill="#fff"/>
<path fill-rule="evenodd" clip-rule="evenodd" d="M2.83213 18.8288C2.83213 18.4748 3.10545 18.1879 3.44261 18.1879H5.88454C6.2217 18.1879 6.49502 18.4748 6.49502 18.8288C6.49502 19.1828 6.2217 19.4697 5.88454 19.4697H3.44261C3.10545 19.4697 2.83213 19.1828 2.83213 18.8288Z" fill="#fff"/>
<path fill-rule="evenodd" clip-rule="evenodd" d="M1.30593 8.89418L1.30593 5.36899C1.30593 4.66103 1.85257 4.08711 2.52689 4.08711L6.80027 4.08711C7.47459 4.08711 8.02123 4.66103 8.02123 5.36899V8.89418C8.02123 9.60214 7.47459 10.1761 6.80027 10.1761H2.52689C1.85257 10.1761 1.30593 9.60214 1.30593 8.89418ZM0.0849611 5.36899C0.0849611 3.95306 1.17825 2.80522 2.52689 2.80522L6.80027 2.80522C8.14891 2.80522 9.2422 3.95306 9.2422 5.36899V8.89418C9.2422 10.3101 8.14891 11.4579 6.80027 11.4579H2.52689C1.17825 11.4579 0.0849609 10.3101 0.0849609 8.89418L0.0849611 5.36899Z" fill="#fff"/>
<path d="M5.65213 9.19834H6.6064L5.155 5.06483H4.17787L2.72076 9.19834H3.68074L3.97216 8.23845H5.35499L5.65213 9.19834ZM4.21787 7.42255L4.65786 5.97672L5.10357 7.42255H4.21787Z" fill="#fff"/>
</svg>
